<?xml version="1.0" standalone="no"?>
<!DOCTYPE svg PUBLIC "-//W3C//DTD SVG 20010904//EN"
 "http://www.w3.org/TR/2001/REC-SVG-20010904/DTD/svg10.dtd">
<svg version="1.0" xmlns="http://www.w3.org/2000/svg"
 width="1024.000000pt" height="1024.000000pt" viewBox="0 0 1024.000000 1024.000000"
 preserveAspectRatio="xMidYMid meet">

<g transform="translate(0.000000,1024.000000) scale(0.100000,-0.100000)"
fill="#000000" stroke="none">
<path d="M4879 6993 c-13 -16 -12 -17 4 -4 9 7 17 15 17 17 0 8 -8 3 -21 -13z"/>
<path d="M4805 6890 c-31 -44 -53 -86 -49 -92 4 -6 3 -8 -4 -5 -8 6 -82 -82
-82 -98 0 -3 56 -5 125 -5 104 0 125 2 125 15 0 8 -3 14 -7 14 -23 -4 -33 3
-33 21 0 12 -7 20 -16 20 -11 0 -15 6 -11 20 4 15 0 20 -14 20 -13 0 -19 6
-17 18 2 11 -3 17 -14 16 -22 -2 -24 14 -3 22 8 4 15 11 15 16 0 6 10 20 23
32 17 17 34 66 22 66 -2 0 -29 -36 -60 -80z m-5 -80 c-24 -15 -37 -11 -16 5
11 8 22 12 25 9 3 -3 -1 -9 -9 -14z"/>
<path d="M3926 6762 c-3 -5 1 -9 9 -9 8 0 12 4 9 9 -3 4 -7 8 -9 8 -2 0 -6 -4
-9 -8z"/>
<path d="M3842 6647 c-100 -148 -186 -351 -227 -537 -26 -117 -32 -409 -10
-545 34 -223 136 -472 259 -635 233 -309 550 -509 936 -591 151 -32 440 -33
587 -1 199 43 374 112 511 202 34 22 62 43 62 46 0 3 -5 2 -12 -2 -7 -4 -8 -3
-4 4 4 6 12 9 20 6 12 -5 176 130 192 158 4 7 -5 2 -19 -11 -15 -14 -27 -20
-27 -15 0 5 -5 2 -11 -6 -9 -13 -10 -13 -6 1 3 9 1 22 -3 30 -7 11 -12 10 -28
-4 -15 -14 -19 -14 -19 -2 0 8 4 12 8 10 3 -3 12 2 19 10 11 13 10 14 -2 10
-9 -4 -15 0 -15 9 0 8 6 12 12 10 6 -3 12 2 12 11 0 21 -10 19 -35 -8 -12 -13
-19 -27 -15 -32 5 -4 3 -5 -3 -2 -6 3 -26 -7 -45 -24 -19 -17 -29 -28 -22 -25
6 4 14 2 18 -3 3 -6 -5 -8 -19 -5 -18 3 -30 -3 -44 -21 -11 -14 -25 -25 -32
-25 -6 0 -8 -5 -4 -12 4 -6 3 -8 -4 -4 -6 3 -33 -7 -60 -24 -319 -196 -739
-246 -1132 -134 -118 34 -311 131 -411 206 -294 221 -465 487 -541 842 -18 83
-22 134 -22 281 0 158 4 194 27 296 14 64 38 146 52 184 31 82 106 233 148
295 16 25 24 40 18 34 -20 -18 -51 -5 -51 22 0 12 -4 25 -10 29 -5 3 -7 12 -4
20 4 8 11 12 17 8 6 -3 7 -1 3 5 -4 7 -9 12 -11 12 -3 0 -26 -33 -53 -73z m48
7 c0 -8 -4 -12 -10 -9 -5 3 -10 -1 -10 -9 0 -9 -5 -16 -10 -16 -7 0 -6 8 2 23
7 12 11 26 10 30 -1 5 2 6 8 2 5 -3 10 -13 10 -21z m10 -54 c0 -5 -4 -10 -10
-10 -5 0 -10 5 -10 10 0 6 5 10 10 10 6 0 10 -4 10 -10z m2160 -1904 c0 -2 -7
-7 -16 -10 -8 -3 -12 -2 -9 4 6 10 25 14 25 6z m-110 -80 c0 -2 -7 -9 -15 -16
-13 -11 -14 -10 -9 4 5 14 24 23 24 12z"/>
<path d="M4932 6701 c-1 -9 -6 -81 -11 -161 -17 -279 -79 -437 -194 -494 -94
-47 -151 -34 -314 71 -59 39 -128 81 -153 93 -46 23 -146 60 -163 60 -5 0 13
-23 42 -51 100 -98 179 -236 276 -483 111 -282 166 -378 281 -485 73 -68 163
-130 259 -178 61 -31 126 -54 94 -34 -26 17 -123 142 -156 201 -50 91 -67 155
-67 250 1 107 29 185 129 365 84 149 137 258 124 250 -5 -4 -6 1 -3 9 3 9 9
14 13 12 4 -3 17 28 30 67 13 40 27 82 32 95 13 32 11 36 -6 18 -8 -8 -15 -21
-15 -28 0 -7 -6 -2 -13 12 -8 14 -9 28 -4 31 5 3 -2 9 -15 13 -14 4 -18 9 -10
13 17 7 15 23 -4 23 -8 0 -12 5 -9 10 3 6 15 10 26 10 28 0 25 38 -3 43 -23 4
-23 4 2 14 24 11 23 11 -18 18 -39 7 -43 10 -38 31 7 26 -12 64 -30 64 -7 0
-14 10 -17 21 -4 15 -11 20 -25 17 -16 -4 -18 -1 -14 15 4 15 2 18 -8 12 -10
-6 -12 -4 -7 9 5 11 3 15 -5 10 -8 -5 -9 -2 -5 10 4 10 7 21 7 24 0 4 4 1 9
-6 5 -9 8 -4 7 15 -1 31 -20 41 -24 14z m98 -176 c0 -8 -4 -15 -10 -15 -5 0
-10 7 -10 15 0 8 5 15 10 15 6 0 10 -7 10 -15z"/>
<path d="M5480 6706 c0 -2 7 -7 16 -10 8 -3 12 -2 9 4 -6 10 -25 14 -25 6z"/>
<path d="M5055 6490 c-3 -5 -1 -10 4 -10 6 0 11 5 11 10 0 6 -2 10 -4 10 -3 0
-8 -4 -11 -10z"/>
<path d="M4560 6462 c-73 -35 -105 -93 -98 -172 9 -93 71 -144 166 -137 90 6
147 65 146 150 -1 97 -57 158 -148 164 -28 1 -58 -1 -66 -5z"/>
<path d="M5162 6350 c0 -14 2 -19 5 -12 2 6 2 18 0 25 -3 6 -5 1 -5 -13z"/>
<path d="M4295 5061 c-3 -12 -3 -25 0 -31 3 -5 2 -10 -4 -10 -6 0 -17 -13 -26
-30 -9 -16 -12 -30 -9 -30 4 0 -1 -9 -11 -20 -18 -20 -17 -20 100 -20 l118 0
-22 24 -23 24 24 5 c12 3 -9 4 -49 3 -39 0 -69 -4 -66 -8 2 -5 -1 -8 -6 -8 -6
0 -11 7 -11 15 0 8 -3 14 -7 14 -21 -3 -21 3 -2 22 16 16 18 23 8 35 -9 11 -8
14 4 14 9 0 18 -8 21 -17 3 -11 4 -8 3 7 -2 31 -33 39 -42 11z m105 -101 c0
-5 -7 -7 -15 -4 -8 4 -15 8 -15 10 0 2 7 4 15 4 8 0 15 -4 15 -10z"/>
<path d="M4498 4913 c7 -3 16 -2 19 1 4 3 -2 6 -13 5 -11 0 -14 -3 -6 -6z"/>
<path d="M4187 4829 l-14 -34 271 -6 c153 -4 326 -14 396 -23 108 -14 128 -20
145 -40 28 -33 57 -46 105 -46 46 0 75 12 105 45 18 18 44 24 170 40 83 10
254 21 380 25 127 3 221 8 210 9 -11 2 -24 3 -29 2 -5 -1 -6 5 -3 13 3 8 -1
17 -11 21 -14 5 -14 7 -2 16 10 7 -27 9 -120 4 -183 -8 -302 -21 -448 -51
-115 -23 -150 -33 -229 -65 -29 -12 -36 -11 -70 8 -99 54 -380 102 -650 110
l-192 6 -14 -34z"/>
<path d="M5270 4844 c-9 -10 -9 -14 -1 -14 6 0 11 4 11 10 0 5 7 7 15 4 8 -4
15 -4 15 -1 0 13 -30 14 -40 1z"/>
<path d="M5938 4853 c7 -3 16 -2 19 1 4 3 -2 6 -13 5 -11 0 -14 -3 -6 -6z"/>
<path d="M5980 4800 c0 -5 5 -10 10 -10 6 0 10 5 10 10 0 6 -4 10 -10 10 -5 0
-10 -4 -10 -10z"/>
<path d="M2825 3998 c-68 -24 -115 -91 -115 -163 0 -93 40 -131 181 -171 131
-37 165 -62 152 -113 -18 -70 -205 -66 -285 5 -15 14 -19 12 -44 -25 -26 -40
-26 -42 -9 -61 45 -49 200 -81 298 -60 107 22 173 115 147 210 -16 61 -58 96
-144 121 -152 45 -167 51 -178 74 -42 92 98 138 217 72 l44 -25 25 38 c23 36
24 39 8 53 -41 37 -106 57 -187 56 -44 0 -93 -5 -110 -11z"/>
<path d="M4897 3973 c-4 -3 -7 -32 -7 -64 l0 -58 -32 -3 c-30 -3 -33 -6 -36
-40 -3 -35 -1 -37 32 -44 l36 -6 0 -122 c0 -195 17 -226 125 -226 77 0 96 13
83 58 -8 30 -12 33 -38 27 -22 -5 -34 -1 -50 15 -19 19 -20 30 -18 138 l3 117
48 3 47 3 0 40 0 39 -50 0 -50 0 0 65 0 65 -43 0 c-24 0 -47 -3 -50 -7z"/>
<path d="M3422 3840 c-23 -10 -45 -26 -48 -35 -9 -24 -22 -18 -26 13 -3 25 -7
27 -50 30 l-48 3 0 -220 0 -221 50 0 50 0 0 130 c0 142 10 185 51 214 35 24
81 20 110 -10 23 -24 24 -33 27 -180 l4 -155 46 3 47 3 5 148 5 149 33 29 c38
34 79 38 113 10 23 -18 24 -26 29 -178 l5 -158 48 -3 47 -3 0 158 c0 175 -7
213 -46 254 -52 54 -166 46 -224 -16 l-23 -24 -19 25 c-44 55 -112 68 -186 34z"/>
<path d="M4138 3847 c-25 -8 -58 -21 -72 -30 -25 -17 -25 -18 -9 -51 15 -32
18 -33 37 -21 32 21 112 38 141 31 37 -9 65 -42 65 -76 l0 -30 -83 0 c-66 0
-92 -5 -127 -22 -114 -58 -98 -206 25 -239 53 -15 130 3 166 37 l27 26 7 -31
c6 -29 10 -31 50 -31 53 0 53 -1 42 190 -9 167 -22 203 -79 232 -48 25 -131
31 -190 15z m162 -276 c0 -53 -43 -91 -103 -91 -48 0 -59 6 -76 37 -13 26 -1
66 26 82 10 6 48 11 86 11 l67 0 0 -39z"/>
<path d="M4702 3843 c-18 -8 -40 -29 -49 -44 -24 -40 -33 -36 -33 11 l0 40
-45 0 -45 0 0 -221 0 -220 48 3 47 3 5 143 5 144 33 29 c24 22 42 29 72 29
l40 0 0 50 c0 45 -2 50 -22 50 -13 0 -38 -8 -56 -17z"/>
<path d="M4420 3250 c0 -5 5 -10 11 -10 5 0 7 5 4 10 -3 6 -8 10 -11 10 -2 0
-4 -4 -4 -10z"/>
<path d="M5685 3250 c3 -5 8 -10 11 -10 2 0 4 5 4 10 0 6 -5 10 -11 10 -5 0
-7 -4 -4 -10z"/>
<path d="M3141 3234 c0 -11 3 -14 6 -6 3 7 2 16 -1 19 -3 4 -6 -2 -5 -13z"/>
<path d="M3144 3120 c0 -52 1 -74 3 -47 2 26 2 68 0 95 -2 26 -3 4 -3 -48z"/>
<path d="M3781 3176 c-10 -12 -8 -13 8 -9 12 3 21 9 21 14 0 14 -16 11 -29 -5z"/>
<path d="M5304 3176 c1 -8 5 -18 8 -22 4 -3 5 1 4 10 -1 8 -5 18 -8 22 -4 3
-5 -1 -4 -10z"/>
<path d="M3740 3108 c0 -49 5 -47 13 5 3 20 2 37 -4 37 -5 0 -9 -19 -9 -42z"/>
<path d="M4645 3120 c2 -27 10 -33 12 -10 1 11 -2 22 -6 24 -4 3 -7 -4 -6 -14z"/>
<path d="M4623 3053 c0 -9 4 -10 14 -2 7 6 13 12 13 14 0 1 -6 2 -13 2 -8 0
-14 -6 -14 -14z"/>
<path d="M3741 3044 c0 -11 3 -14 6 -6 3 7 2 16 -1 19 -3 4 -6 -2 -5 -13z"/>
<path d="M5800 3039 c0 -5 5 -7 10 -4 6 3 10 8 10 11 0 2 -4 4 -10 4 -5 0 -10
-5 -10 -11z"/>
<path d="M3370 2650 c0 -110 2 -120 20 -130 24 -13 60 -4 60 15 0 7 -9 15 -20
18 -18 5 -20 14 -20 111 0 99 -1 106 -20 106 -19 0 -20 -7 -20 -120z"/>
<path d="M3890 2728 c0 -24 -3 -80 -7 -125 l-6 -83 27 0 c21 0 26 5 26 24 0
13 6 29 14 36 12 9 19 5 38 -24 25 -39 39 -48 57 -37 8 5 2 20 -19 49 -16 23
-30 44 -30 48 0 3 11 20 25 38 45 59 5 57 -51 -3 l-33 -36 -1 78 c0 70 -2 77
-20 77 -17 0 -20 -7 -20 -42z"/>
<path d="M6850 2720 l0 -51 -30 16 c-39 20 -43 19 -79 -11 -77 -65 -4 -194 84
-148 19 10 31 11 33 5 5 -14 39 -14 48 0 3 6 1 16 -5 22 -7 7 -11 52 -11 114
0 96 -1 103 -20 103 -17 0 -20 -7 -20 -50z m-18 -77 c33 -30 16 -93 -27 -93
-24 0 -55 32 -55 57 0 16 36 53 52 53 6 0 20 -7 30 -17z"/>
<path d="M2892 2666 c3 -83 6 -97 27 -120 31 -33 70 -41 115 -22 50 21 68 65
64 159 -3 64 -5 72 -23 72 -18 0 -20 -8 -25 -88 -5 -96 -13 -109 -65 -105 -40
4 -55 36 -55 126 0 66 -2 72 -21 72 -20 0 -21 -4 -17 -94z"/>
<path d="M4150 2755 c0 -3 20 -41 45 -84 31 -53 45 -89 45 -114 0 -30 4 -37
20 -37 17 0 20 7 20 39 0 27 12 61 40 110 45 79 48 91 21 91 -12 0 -28 -18
-47 -55 -16 -30 -31 -55 -34 -55 -3 0 -19 24 -36 53 -20 34 -37 53 -52 55 -12
2 -22 1 -22 -3z"/>
<path d="M6320 2734 c0 -20 5 -25 23 -24 47 4 47 4 47 -95 0 -95 0 -95 25 -95
l25 0 0 100 0 100 35 0 c28 0 35 4 35 20 0 19 -7 20 -95 20 l-95 0 0 -26z"/>
<path d="M5030 2630 c0 -113 1 -120 20 -120 17 0 20 7 20 50 l0 50 55 0 c48 0
55 3 55 19 0 17 -8 20 -52 23 -51 3 -53 4 -53 33 0 30 1 30 58 33 42 2 57 7
57 17 0 12 -17 15 -80 15 l-80 0 0 -120z"/>
<path d="M5460 2725 c0 -14 -7 -28 -15 -31 -8 -4 -15 -12 -15 -20 0 -8 7 -14
15 -14 12 0 15 -14 15 -65 0 -72 16 -91 65 -79 31 8 30 39 0 39 -17 0 -20 8
-23 53 -3 47 -1 52 17 52 27 0 27 26 1 33 -14 3 -20 14 -20 31 0 19 -5 26 -20
26 -15 0 -20 -7 -20 -25z"/>
<path d="M3225 2684 c-19 -10 -31 -11 -33 -5 -2 6 -12 11 -23 11 -17 0 -19 -8
-19 -85 0 -78 2 -85 20 -85 17 0 20 7 20 39 0 71 27 109 65 95 11 -5 15 -22
15 -70 0 -62 1 -64 26 -64 l26 0 -4 75 c-2 41 -8 78 -13 84 -20 18 -51 20 -80
5z"/>
<path d="M3733 2685 c-17 -7 -36 -22 -42 -34 -28 -52 3 -124 59 -136 31 -7 81
11 87 31 5 16 -28 27 -41 14 -19 -19 -56 -11 -68 15 -22 48 23 102 63 77 11
-7 27 -8 41 -3 22 8 22 9 -12 30 -41 24 -45 25 -87 6z"/>
<path d="M4404 2686 c-56 -25 -69 -101 -24 -146 31 -31 69 -36 109 -14 67 36
64 131 -5 160 -40 17 -41 17 -80 0z m75 -40 c7 -8 11 -30 9 -48 -2 -25 -9 -35
-30 -42 -36 -13 -58 6 -58 50 0 47 52 73 79 40z"/>
<path d="M4590 2691 c-19 -8 -26 -94 -11 -134 16 -41 51 -53 92 -33 21 11 35
13 37 6 5 -13 39 -13 48 1 3 6 1 16 -5 22 -6 6 -11 39 -11 74 0 56 -2 63 -20
63 -18 0 -20 -7 -20 -54 0 -61 -18 -89 -54 -84 -19 3 -21 10 -24 68 -3 70 -8
81 -32 71z"/>
<path d="M4870 2683 c-17 -12 -25 -13 -28 -5 -2 7 -12 12 -23 12 -17 0 -19 -8
-19 -85 0 -78 2 -85 20 -85 17 0 20 7 20 50 0 52 23 90 55 90 16 0 21 25 7 34
-5 3 -19 -2 -32 -11z"/>
<path d="M5230 2626 c0 -63 4 -80 20 -96 24 -24 36 -25 74 -5 21 11 31 12 36
4 12 -19 45 -6 41 16 -2 11 -6 48 -8 83 -4 53 -8 62 -24 62 -16 0 -19 -7 -19
-54 0 -55 -16 -86 -44 -86 -24 0 -35 25 -38 85 -2 48 -7 60 -20 63 -16 3 -18
-6 -18 -72z"/>
<path d="M5872 2684 c-12 -8 -22 -10 -22 -5 0 6 -9 11 -20 11 -18 0 -20 -7
-20 -85 0 -78 2 -85 20 -85 17 0 20 7 20 53 0 55 12 77 42 77 13 0 18 8 18 25
0 29 -7 31 -38 9z"/>
<path d="M5978 2684 c-39 -21 -56 -80 -34 -122 22 -43 80 -61 124 -38 47 24
41 39 -13 30 -30 -4 -50 -2 -60 6 -28 23 -15 30 55 30 76 0 81 5 58 55 -13 28
-55 55 -85 55 -10 -1 -30 -7 -45 -16z m87 -44 c18 -20 17 -20 -33 -20 -53 0
-62 6 -40 28 18 18 53 14 73 -8z"/>
<path d="M6560 2693 c-36 -13 -60 -47 -60 -84 0 -84 96 -123 155 -64 45 45 25
123 -37 144 -34 12 -36 12 -58 4z m58 -45 c26 -26 4 -98 -30 -98 -20 0 -48 33
-48 56 0 43 50 70 78 42z"/>
<path d="M6973 2690 c-41 -17 -26 -42 17 -30 20 6 35 4 49 -7 32 -22 25 -33
-20 -33 -56 0 -79 -15 -79 -49 0 -41 17 -50 96 -49 l70 2 -4 65 c-3 55 -8 70
-28 89 -26 23 -63 27 -101 12z m84 -107 c6 -16 -41 -45 -61 -37 -19 7 -22 40
-3 48 20 8 60 2 64 -11z"/>
<path d="M3495 2665 c-66 -65 3 -174 91 -145 100 33 79 170 -26 170 -30 0 -47
-6 -65 -25z m102 -31 c15 -24 15 -29 2 -53 -18 -32 -45 -38 -70 -15 -23 21
-24 51 -2 76 23 25 50 22 70 -8z"/>
<path d="M5581 2633 c1 -81 10 -105 42 -116 19 -6 36 -4 59 8 21 10 34 12 36
5 2 -5 13 -10 24 -10 18 0 20 4 14 31 -3 17 -6 56 -6 85 0 47 -2 54 -20 54
-17 0 -20 -7 -20 -48 0 -57 -22 -95 -53 -90 -20 3 -22 10 -25 71 -3 64 -4 67
-27 67 -24 0 -25 -3 -24 -57z"/>
<path d="M7151 2638 c12 -29 28 -70 37 -90 18 -45 11 -68 -23 -68 -18 0 -25
-5 -25 -20 0 -15 7 -20 26 -20 47 0 61 17 94 117 18 54 37 106 42 116 8 16 6
18 -13 15 -17 -2 -27 -16 -42 -61 -11 -32 -23 -55 -27 -50 -4 4 -15 32 -26 61
-15 42 -22 52 -41 52 l-23 0 21 -52z"/>
<path d="M6154 2555 c-8 -21 3 -47 19 -43 6 3 13 14 15 25 4 24 -26 40 -34 18z"/>
<path d="M7314 2556 c-9 -24 4 -48 23 -44 12 2 18 12 18 28 0 29 -32 41 -41
16z"/>
</g>
</svg>
